# xmcd
#
# Track frame offsets:
#	150
#	13507
#	26334
#	38656
#	52143
#	64883
#	76537
#	89512
#	102336
#	114383
#	126105
#	137142
#	150332
#	162349
#	174933
#	185890
#	197395
#	209824
#	221646
#	232618
#	245070
#	256180
#	269484
#	280709
#	291966
#	305550
#	317192
#
# Disc length: 4392 seconds
#
# Revision: 1
# Processed by: cddbd v1.5.1PL2 Copyright (c) Steve Scherf et al.
# Submitted via: audiograbber 1.83.01
#
DISCID=8011261b
DTITLE=Hank Williams - Original Singles Collection Disc 2
DYEAR=1900
DGENRE=Country
TTITLE0=Mind Your Own Business
TTITLE1=There'll Be No Teardrops Tonight
TTITLE2=Lost Highway
TTITLE3=You're Gonna Change (Or I'm Gonna Leave)
TTITLE4=I'm So Lonesome I Could Cry
TTITLE5=My Bucket's Got A Hole In It
TTITLE6=May You Never Be Alone
TTITLE7=I Just Don't Like This Kind Of Living
TTITLE8=Long Gone Lonesome Blues
TTITLE9=My Son Calls Another Man Daddy
TTITLE10=Why Don't You Love Me
TTITLE11=House Without Love, A
TTITLE12=Why Should We Try Anymore
TTITLE13=They'll Never Take Her Love From Me
TTITLE14=Moanin' The Blues
TTITLE15=Nobody's Lonesome For Me
TTITLE16=Cold, Cold Heart
TTITLE17=Dear John
TTITLE18=I Can't Help It (If I'm Sill In Love)
TTITLE19=Howlin' At The Moon
TTITLE20=My Heart Would Know
TTITLE21=Hey, Good Lookin'
TTITLE22=(I Heard That) Lonesome Whistle
TTITLE23=Crazy Heart
TTITLE24=I'd Still Want You
TTITLE25=Baby, We're Really In Love
TTITLE26=I'm Sorry For You, My Friend
EXTD=
EXTT0=
EXTT1=
EXTT2=
EXTT3=
EXTT4=
EXTT5=
EXTT6=
EXTT7=
EXTT8=
EXTT9=
EXTT10=
EXTT11=
EXTT12=
EXTT13=
EXTT14=
EXTT15=
EXTT16=
EXTT17=
EXTT18=
EXTT19=
EXTT20=
EXTT21=
EXTT22=
EXTT23=
EXTT24=
EXTT25=
EXTT26=
PLAYORDER=
